<svg id="Capa_1" enable-background="new 0 0 512 512" height="512" viewBox="0 0 512 512" width="512" xmlns="http://www.w3.org/2000/svg" xmlns:xlink="http://www.w3.org/1999/xlink"><linearGradient id="SVGID_1_" gradientUnits="userSpaceOnUse" x1="256" x2="256" y1="512.001" y2="0"><stop offset="0" stop-color="#00b59c"/><stop offset="1" stop-color="#9cffac"/></linearGradient><g><g><g><path d="m442.471 318.941c-10.625-43.847-30.378-86.572-55.619-120.306-14.13-18.885-29.65-34.515-46.075-46.635h35.223c24.813 0 45 20.187 45 45 0 8.284 6.716 15 15 15s15-6.716 15-15c0-41.355-33.645-75-75-75h-47.348c21.038-23.328 32.348-59.676 32.348-107 0-8.284-6.716-15-15-15h-30c-24.508 0-46.305 11.818-60 30.052-13.694-18.234-35.492-30.052-60-30.052h-30c-8.284 0-15 6.716-15 15 0 57.718 16.825 99.11 47.604 120.462-26.611 12.679-51.681 34.072-73.456 63.173-25.242 33.734-44.994 76.459-55.619 120.306-10.856 44.801-11.408 87.93-1.552 121.44 12.403 42.169 53.354 71.62 99.588 71.619h176.871.001c46.23 0 87.186-29.453 99.586-71.619 9.855-33.51 9.305-76.638-1.552-121.44zm-261.033-288.941h14.562c24.813 0 45 20.187 45 45 0 8.284 6.716 15 15 15s15-6.716 15-15c0-24.813 20.187-45 45-45h14.562c-2.691 44.968-18.832 92-74.562 92s-71.87-47.032-74.562-92zm233.804 401.917c-8.672 29.488-37.788 50.083-70.806 50.083h-176.871c-33.017 0-62.133-20.595-70.806-50.083-17.484-59.448 5.047-152.011 52.41-215.309 31.174-41.663 69.115-64.608 106.831-64.608s75.657 22.945 106.832 64.608c47.363 63.298 69.894 155.86 52.41 215.309zm-174.242-159.917h30c8.271 0 15 6.729 15 15 0 8.284 6.716 15 15 15s15-6.716 15-15c0-24.813-20.187-45-45-45v-15c0-8.284-6.716-15-15-15s-15 6.716-15 15v15c-24.813 0-45 20.187-45 45s20.187 45 45 45h30c8.271 0 15 6.729 15 15s-6.729 15-15 15h-30c-8.271 0-15-6.729-15-15 0-8.284-6.716-15-15-15s-15 6.716-15 15c0 24.813 20.187 45 45 45v15c0 8.284 6.716 15 15 15s15-6.716 15-15v-15c24.813 0 45-20.187 45-45s-20.187-45-45-45h-30c-8.271 0-15-6.729-15-15s6.729-15 15-15z" fill="url(#SVGID_1_)"/></g></g></g></svg>